<?xml version="1.0" encoding="UTF-8"?>
<svg id="Layer_2" data-name="Layer 2" xmlns="http://www.w3.org/2000/svg" viewBox="0 0 67.27 40.18">
  <defs>
    <style>
      .cls-1 {
        fill: #FFFFFF;
        stroke-width: 0px;
      }
    </style>
  </defs>
  <g id="Layer_1-2" data-name="Layer 1">
    <g>
      <g>
        <path class="cls-1" d="m7.56,17.96c0,5.35,0,7.4-.99,9.74-.69,1.65-2.15,3.2-4.82,5.05-.43.3-.96.66-1.29.83-.07.03-.13.07-.23.07s-.23-.07-.23-.2c0-.2.17-.3.46-.5.4-.23.86-.63,1.16-.92,2.15-2.18,3.17-3.93,3.17-12.45v-9.54c0-5.15,0-6.08-.07-7.13-.07-1.12-.33-1.65-1.42-1.88-.26-.07-.73-.1-1.02-.1-.23,0-.36-.1-.36-.23s.13-.23.5-.23c1.49,0,3.6.1,3.76.1s2.25-.1,3.24-.1c.36,0,.53.07.53.26,0,.13-.17.2-.36.2-.23,0-.5.03-.79.07-.89.1-1.09.76-1.16,1.92-.07,1.06-.07,1.98-.07,7.13v7.92Z"/>
        <path class="cls-1" d="m15.89,18.59c0-3.86,2.41-6.44,4.99-7.96-1.22-1.72-1.55-3.07-1.55-4.56,0-2.61,2.67-6.08,7.1-6.08,1.42,0,2.87.26,3.7.66.69.33.73.53.73.99,0,1.22-.07,2.71-.2,3.57-.1.59-.2.79-.36.79s-.2-.13-.2-.63c0-.99-.23-1.98-1.02-2.81-.79-.86-1.88-1.45-3.3-1.45-1.98,0-4.19,1.22-4.19,4.33,0,2.58,1.78,4.72,5.22,8.45,1.12,1.22,5.18,5.02,6.24,5.91.92-1.25,1.68-3.47,1.68-5.48,0-.5-.13-1.12-.63-1.62-.36-.36-.92-.43-1.35-.5-.36-.07-.66-.1-.66-.26s.26-.23.53-.23c.79,0,2.11.03,3.96.23.5.07.59.33.59.66,0,2.67-1.82,6.01-3.27,7.79,2.18,1.85,3.63,2.74,4.56,3.27,1.06.63,2.67,1.29,3.86,1.29.3,0,.53.03.53.23,0,.17-.17.23-.46.23-1.92,0-3.24.1-4.29,0-1.68-.13-3.04-.59-5.98-2.94-.76.76-3.3,3.4-8.19,3.4-5.78,0-8.02-4.42-8.02-7.3Zm15.39,3.24c-1.85-1.55-5.09-4.75-5.94-5.68-.86-.92-3.04-3.3-3.96-4.66-1.72,1.12-2.77,2.91-2.77,5.55,0,4.13,2.81,7.03,6.5,7.03,3.07,0,5.05-1.09,6.17-2.25Z"/>
        <path class="cls-1" d="m50.4,15.68c-.17,0-.26.1-.33.26l-1.98,5.84c-.3.83-.46,1.62-.46,2.21,0,.66.63.96,1.19.96h.3c.33,0,.43.07.43.2,0,.2-.3.26-.59.26-.79,0-2.11-.1-2.48-.1s-2.18.1-3.73.1c-.43,0-.63-.07-.63-.26,0-.13.17-.2.46-.2.23,0,.53-.03.79-.07,1.52-.2,2.18-1.45,2.77-3.1L53.63,1.29c.4-1.09.53-1.29.73-1.29s.33.17.73,1.19c.5,1.25,5.68,14.89,7.69,19.91,1.19,2.94,2.15,3.47,2.84,3.67.5.17,1.02.2,1.29.2.2,0,.36.03.36.2,0,.2-.3.26-.66.26-.5,0-2.91,0-5.18-.07-.63-.03-.99-.03-.99-.23,0-.13.1-.2.23-.23.2-.07.4-.36.2-.89l-3.07-8.12c-.07-.13-.13-.2-.3-.2h-7.1Zm6.67-1.19c.17,0,.17-.1.13-.23l-3.14-8.92c-.17-.5-.33-.5-.5,0l-2.91,8.92c-.07.17,0,.23.1.23h6.31Z"/>
      </g>
      <g>
        <path class="cls-1" d="m9.07,36.37c0-1.24,0-1.46-.02-1.71-.02-.27-.08-.4-.34-.45-.06-.02-.2-.02-.27-.02-.03,0-.06-.02-.06-.05,0-.05.04-.06.13-.06.36,0,.83.02.9.02.17,0,.63-.02,1-.02.99,0,1.35.33,1.47.45.17.17.4.52.4,1.04,0,1.03-.82,1.79-1.95,1.79-.04,0-.13,0-.17,0-.04,0-.09-.02-.09-.06,0-.06.05-.07.21-.07.77,0,1.37-.52,1.37-1.35,0-.2-.02-.73-.44-1.16s-.9-.4-1.08-.4c-.13,0-.27.02-.34.05-.05.02-.06.07-.06.15v3.25c0,.76,0,1.39.04,1.72.02.23.07.4.31.44.11.02.29.03.36.03.05,0,.06.02.06.05,0,.04-.04.06-.13.06-.44,0-.93-.02-.97-.02-.02,0-.52.02-.76.02-.09,0-.13-.02-.13-.06,0-.02.02-.05.06-.05.07,0,.17-.02.24-.03.16-.03.2-.21.23-.44.04-.33.04-.96.04-1.72v-1.39Z"/>
        <path class="cls-1" d="m14.38,36.37c0-1.24,0-1.46-.02-1.71-.02-.27-.08-.4-.34-.45-.06-.02-.2-.02-.27-.02-.03,0-.06-.02-.06-.05,0-.05.04-.06.13-.06.36,0,.86.02.9.02.09,0,.69-.02.93-.02.5,0,1.03.05,1.45.35.2.14.55.53.55,1.08,0,.59-.25,1.17-.96,1.83.65.83,1.19,1.54,1.65,2.03.43.45.77.54.97.57.15.02.26.02.31.02.04,0,.07.02.07.05,0,.05-.05.06-.19.06h-.56c-.44,0-.64-.04-.85-.15-.34-.18-.62-.57-1.07-1.16-.33-.44-.71-.97-.86-1.17-.03-.03-.06-.05-.1-.05l-.97-.02s-.06.02-.06.06v.19c0,.76,0,1.39.04,1.72.02.23.07.4.31.44.11.02.29.03.36.03.05,0,.06.02.06.05,0,.04-.04.06-.13.06-.44,0-.93-.02-.97-.02,0,0-.51.02-.74.02-.09,0-.13-.02-.13-.06,0-.02.02-.05.06-.05.07,0,.17-.02.24-.03.16-.03.2-.21.23-.44.04-.33.04-.96.04-1.72v-1.39Zm.63.69s.02.07.06.09c.12.07.48.13.83.13.19,0,.41-.02.59-.15.28-.19.48-.62.48-1.22,0-.99-.52-1.58-1.37-1.58-.24,0-.45.02-.53.05-.04.02-.06.05-.06.09v2.59Z"/>
        <path class="cls-1" d="m19.89,37.06c0-1.28.93-3.1,3.12-3.1,1.78,0,3.11,1.12,3.11,2.97s-1.25,3.24-3.16,3.24c-2.17,0-3.07-1.69-3.07-3.11Zm5.47.09c0-1.9-1.16-2.92-2.41-2.92-1.32,0-2.31.87-2.31,2.61,0,1.84,1.11,3.03,2.53,3.03.71,0,2.19-.41,2.19-2.72Z"/>
        <path class="cls-1" d="m28.32,36.37c0-1.24,0-1.46-.02-1.71-.02-.27-.08-.4-.34-.45-.06-.02-.2-.02-.27-.02-.03,0-.06-.02-.06-.05,0-.05.04-.06.13-.06.36,0,.83.02.9.02.17,0,.63-.02,1-.02.99,0,1.35.33,1.47.45.17.17.4.52.4,1.04,0,1.03-.82,1.79-1.95,1.79-.04,0-.13,0-.17,0-.04,0-.09-.02-.09-.06,0-.06.05-.07.21-.07.77,0,1.37-.52,1.37-1.35,0-.2-.02-.73-.44-1.16-.42-.43-.9-.4-1.08-.4-.13,0-.27.02-.34.05-.05.02-.06.07-.06.15v3.25c0,.76,0,1.39.04,1.72.02.23.07.4.31.44.11.02.28.03.36.03.05,0,.06.02.06.05,0,.04-.04.06-.13.06-.44,0-.93-.02-.97-.02-.02,0-.52.02-.76.02-.09,0-.13-.02-.13-.06,0-.02.02-.05.06-.05.07,0,.17-.02.24-.03.16-.03.2-.21.23-.44.04-.33.04-.96.04-1.72v-1.39Z"/>
        <path class="cls-1" d="m33.63,36.37c0-1.24,0-1.46-.02-1.71-.02-.27-.08-.4-.34-.45-.06-.02-.16-.02-.23-.02-.05,0-.1-.02-.1-.05,0-.05.04-.06.13-.06.18,0,.4,0,.89.02.06,0,1.63,0,1.81,0,.17,0,.32-.02.36-.05.05-.02.06-.03.09-.03s.03.03.03.07c0,.06-.05.15-.06.37,0,.12-.02.27-.03.47,0,.08-.03.13-.06.13-.05,0-.06-.04-.06-.1,0-.1-.02-.2-.04-.26-.06-.18-.22-.26-.57-.29-.13-.02-1-.02-1.08-.02-.03,0-.05.02-.05.08v2.19c0,.06,0,.08.05.08.1,0,1.08,0,1.26-.02.21-.02.32-.04.4-.13.04-.05.06-.08.09-.08.02,0,.04.02.04.06s-.04.18-.06.44c-.02.25-.02.43-.03.54,0,.08-.02.12-.06.12-.05,0-.06-.06-.06-.13,0-.07,0-.15-.03-.22-.03-.12-.13-.23-.41-.26-.21-.02-1-.04-1.13-.04-.04,0-.05.02-.05.06v.7c0,.27,0,1.19,0,1.35.02.33.06.5.26.58.13.06.35.07.66.07.24,0,.5,0,.71-.07.25-.08.34-.25.4-.59.02-.09.03-.12.07-.12.05,0,.05.06.05.12,0,.06-.06.6-.1.77-.06.21-.12.21-.43.21-.59,0-.85-.02-1.16-.02-.32,0-.68-.02-.99-.02-.19,0-.38.03-.59.02-.09,0-.13-.02-.13-.06,0-.02.04-.04.09-.05.08,0,.13,0,.18-.02.17-.04.27-.15.29-.74,0-.31.02-.71.02-1.42v-1.39Z"/>
        <path class="cls-1" d="m38.69,36.37c0-1.24,0-1.46-.02-1.71-.02-.27-.08-.4-.34-.45-.06-.02-.2-.02-.27-.02-.03,0-.06-.02-.06-.05,0-.05.04-.06.13-.06.36,0,.86.02.89.02.09,0,.69-.02.93-.02.5,0,1.03.05,1.45.35.2.14.55.53.55,1.08,0,.59-.25,1.17-.96,1.83.65.83,1.19,1.54,1.65,2.03.43.45.77.54.97.57.15.02.26.02.31.02.04,0,.07.02.07.05,0,.05-.05.06-.19.06h-.56c-.44,0-.64-.04-.85-.15-.34-.18-.62-.57-1.07-1.16-.33-.44-.71-.97-.86-1.17-.03-.03-.06-.05-.1-.05l-.97-.02s-.06.02-.06.06v.19c0,.76,0,1.39.04,1.72.02.23.07.4.31.44.11.02.29.03.36.03.05,0,.06.02.06.05,0,.04-.04.06-.13.06-.44,0-.93-.02-.97-.02,0,0-.51.02-.75.02-.09,0-.13-.02-.13-.06,0-.02.02-.05.06-.05.07,0,.17-.02.24-.03.16-.03.2-.21.23-.44.04-.33.04-.96.04-1.72v-1.39Zm.63.69s.02.07.06.09c.12.07.48.13.83.13.19,0,.41-.02.59-.15.28-.19.48-.62.48-1.22,0-.99-.52-1.58-1.37-1.58-.24,0-.45.02-.53.05-.04.02-.06.05-.06.09v2.59Z"/>
        <path class="cls-1" d="m46.27,37.77c0,.76,0,1.39.04,1.72.02.23.07.4.31.44.11.02.29.03.36.03.05,0,.06.02.06.05,0,.04-.04.06-.13.06-.44,0-.93-.02-.97-.02s-.54.02-.78.02c-.09,0-.13-.02-.13-.06,0-.02.02-.05.06-.05.07,0,.17-.02.24-.03.16-.03.2-.21.23-.44.04-.33.04-.96.04-1.72v-3.35c-.39,0-.78,0-1.17.02-.49,0-.68.06-.81.25-.09.13-.11.19-.13.25-.02.06-.05.08-.08.08-.02,0-.04-.02-.04-.07,0-.08.16-.76.17-.82.02-.05.05-.15.08-.15.06,0,.13.08.35.09.23.02.53.04.63.04h2.97c.25,0,.44-.02.56-.04.12-.02.19-.04.22-.04.04,0,.04.05.04.09,0,.24-.02.78-.02.87,0,.07-.02.1-.06.1-.04,0-.06-.02-.06-.13,0-.03,0-.06,0-.09-.02-.24-.21-.42-.97-.44-.33,0-.67,0-1-.02v3.35Z"/>
        <path class="cls-1" d="m50.45,36.37c0-1.24,0-1.46-.02-1.71-.02-.27-.09-.4-.27-.44-.09-.02-.19-.03-.25-.03-.03,0-.06-.02-.06-.05,0-.05.04-.06.13-.06.26,0,.76.02.8.02s.54-.02.78-.02c.09,0,.13.02.13.06,0,.03-.03.05-.06.05-.06,0-.1,0-.2.02-.21.04-.28.17-.29.45-.02.25-.02.47-.02,1.71v1.39c0,.76,0,1.39.04,1.72.02.23.07.4.31.44.11.02.28.03.33.03.07,0,.09.02.09.05,0,.04-.03.06-.12.06-.44,0-.94-.02-.98-.02s-.54.02-.78.02c-.09,0-.13-.02-.13-.06,0-.02.02-.05.09-.05.05,0,.13,0,.21-.02.16-.03.21-.21.24-.44.04-.33.04-.96.04-1.72v-1.39Z"/>
        <path class="cls-1" d="m54.33,36.37c0-1.24,0-1.46-.02-1.71-.02-.27-.08-.4-.34-.45-.06-.02-.16-.02-.23-.02-.05,0-.1-.02-.1-.05,0-.05.04-.06.13-.06.18,0,.4,0,.89.02.06,0,1.63,0,1.81,0,.17,0,.32-.02.36-.05.05-.02.06-.03.09-.03s.03.03.03.07c0,.06-.05.15-.06.37,0,.12-.02.27-.03.47,0,.08-.03.13-.06.13-.05,0-.06-.04-.06-.1,0-.1-.02-.2-.04-.26-.06-.18-.22-.26-.57-.29-.13-.02-1-.02-1.08-.02-.03,0-.05.02-.05.08v2.19c0,.06,0,.08.05.08.1,0,1.08,0,1.26-.02.21-.02.32-.04.4-.13.04-.05.06-.08.09-.08.02,0,.04.02.04.06s-.04.18-.06.44c-.02.25-.02.43-.03.54,0,.08-.02.12-.06.12-.05,0-.06-.06-.06-.13,0-.07,0-.15-.03-.22-.03-.12-.13-.23-.41-.26-.21-.02-1-.04-1.13-.04-.04,0-.05.02-.05.06v.7c0,.27,0,1.19,0,1.35.02.33.06.5.26.58.13.06.35.07.66.07.24,0,.5,0,.71-.07.25-.08.34-.25.4-.59.02-.09.03-.12.07-.12.05,0,.05.06.05.12,0,.06-.06.6-.1.77-.06.21-.12.21-.43.21-.59,0-.85-.02-1.16-.02-.32,0-.68-.02-.99-.02-.19,0-.38.03-.59.02-.09,0-.13-.02-.13-.06,0-.02.04-.04.09-.05.08,0,.13,0,.18-.02.17-.04.27-.15.29-.74,0-.31.02-.71.02-1.42v-1.39Z"/>
        <path class="cls-1" d="m59.05,39.96c-.11-.06-.12-.09-.12-.3,0-.4.03-.71.04-.84,0-.09.02-.13.06-.13.05,0,.06.02.06.09,0,.07,0,.18.02.29.12.59.64.81,1.17.81.76,0,1.13-.55,1.13-1.05,0-.55-.23-.86-.91-1.42l-.36-.29c-.84-.69-1.03-1.18-1.03-1.72,0-.85.63-1.43,1.64-1.43.31,0,.54.03.74.08.15.03.21.04.28.04s.08.02.08.06-.03.3-.03.84c0,.13-.02.18-.06.18-.05,0-.06-.04-.06-.1,0-.09-.06-.31-.1-.4-.05-.09-.26-.42-.99-.42-.55,0-.97.34-.97.92,0,.45.21.74.97,1.33l.22.17c.93.74,1.16,1.23,1.16,1.86,0,.33-.13.93-.67,1.31-.34.24-.77.33-1.2.33-.37,0-.74-.06-1.06-.21Z"/>
      </g>
    </g>
  </g>
</svg>